<svg width="900" viewBox="0 0 900 820" xmlns="http://www.w3.org/2000/svg" font-family="Arial, sans-serif">
<defs>
  <marker id="tri" viewBox="0 0 10 10" refX="9" refY="5" markerWidth="9" markerHeight="9" orient="auto-start-reverse">
    <path d="M1 1L9 5L1 9Z" fill="white" stroke="#555" stroke-width="1.2"/>
  </marker>
  <marker id="trid" viewBox="0 0 10 10" refX="9" refY="5" markerWidth="9" markerHeight="9" orient="auto-start-reverse">
    <path d="M1 1L9 5L1 9Z" fill="white" stroke="#555" stroke-width="1.2" stroke-dasharray="2 1"/>
  </marker>
  <marker id="arr" viewBox="0 0 10 10" refX="8" refY="5" markerWidth="6" markerHeight="6" orient="auto-start-reverse">
    <path d="M2 1L8 5L2 9" fill="none" stroke="#888" stroke-width="1.5" stroke-linecap="round" stroke-linejoin="round"/>
  </marker>
</defs>
<rect width="900" height="820" fill="#FAFAFA"/>

<!-- ── <<interface>> Bloqueavel ── -->
<rect x="30" y="28" width="195" height="96" rx="5" fill="#E1F5EE" stroke="#0F6E56" stroke-width="1"/>
<rect x="30" y="28" width="195" height="24" rx="5" fill="#1D9E75"/>
<rect x="30" y="50" width="195" height="2" fill="#1D9E75"/>
<text x="127" y="43" text-anchor="middle" fill="white" font-size="11" font-style="italic">&lt;&lt;interface&gt;&gt;</text>
<text x="127" y="68" text-anchor="middle" fill="#085041" font-size="13" font-weight="bold">Bloqueavel</text>
<line x1="30" y1="80" x2="225" y2="80" stroke="#0F6E56" stroke-width="0.5"/>
<text x="42" y="94" fill="#085041" font-size="11">+ bloquear()</text>
<text x="42" y="108" fill="#085041" font-size="11">+ desbloquear() / isAtiva()</text>

<!-- ── <<interface>> Tributavel ── -->
<rect x="660" y="28" width="210" height="80" rx="5" fill="#E1F5EE" stroke="#0F6E56" stroke-width="1"/>
<rect x="660" y="28" width="210" height="24" rx="5" fill="#1D9E75"/>
<text x="765" y="43" text-anchor="middle" fill="white" font-size="11" font-style="italic">&lt;&lt;interface&gt;&gt;</text>
<text x="765" y="68" text-anchor="middle" fill="#085041" font-size="13" font-weight="bold">Tributavel</text>
<line x1="660" y1="78" x2="870" y2="78" stroke="#0F6E56" stroke-width="0.5"/>
<text x="672" y="98" fill="#085041" font-size="11">+ calcularImposto(): double</text>

<!-- ── ContaBancaria ── -->
<rect x="290" y="176" width="320" height="200" rx="5" fill="#EEEDFE" stroke="#534AB7" stroke-width="1"/>
<rect x="290" y="176" width="320" height="28" rx="5" fill="#7F77DD"/>
<text x="450" y="191" text-anchor="middle" fill="white" font-size="11" font-style="italic">&lt;&lt;abstract&gt;&gt;</text>
<text x="450" y="207" text-anchor="middle" fill="#26215C" font-size="14" font-weight="bold">ContaBancaria</text>
<line x1="290" y1="218" x2="610" y2="218" stroke="#534AB7" stroke-width="0.5"/>
<text x="302" y="233" fill="#3C3489" font-size="11"># numero: String</text>
<text x="302" y="248" fill="#3C3489" font-size="11"># titular: String</text>
<text x="302" y="263" fill="#3C3489" font-size="11"># saldo: double</text>
<text x="302" y="278" fill="#3C3489" font-size="11">- ativa: boolean</text>
<line x1="290" y1="288" x2="610" y2="288" stroke="#534AB7" stroke-width="0.5"/>
<text x="302" y="303" fill="#3C3489" font-size="11">+ depositar(valor: double) throws OperacaoInvalidaException</text>
<text x="302" y="318" fill="#3C3489" font-size="11">+ sacar(valor: double) throws OperacaoInvalidaException</text>
<text x="302" y="333" fill="#3C3489" font-size="11">+ {abstract} calcularRendimento(): double</text>
<text x="302" y="348" fill="#3C3489" font-size="11">+ bloquear() / desbloquear() / isAtiva()</text>

<!-- ── ContaCorrente ── -->
<rect x="30" y="490" width="222" height="160" rx="5" fill="#E6F1FB" stroke="#185FA5" stroke-width="1"/>
<rect x="30" y="490" width="222" height="24" rx="5" fill="#378ADD"/>
<text x="141" y="506" text-anchor="middle" fill="white" font-size="13" font-weight="bold">ContaCorrente</text>
<line x1="30" y1="516" x2="252" y2="516" stroke="#185FA5" stroke-width="0.5"/>
<text x="42" y="531" fill="#0C447C" font-size="11">- totalSacado: double</text>
<line x1="30" y1="543" x2="252" y2="543" stroke="#185FA5" stroke-width="0.5"/>
<text x="42" y="558" fill="#0C447C" font-size="11">+ calcularRendimento(): double</text>
<text x="42" y="573" fill="#0C447C" font-size="11">+ sacar(valor: double)</text>
<text x="42" y="588" fill="#0C447C" font-size="11">+ calcularImposto(): double</text>
<text x="42" y="603" fill="#0C447C" font-size="11">+ getLimiteChequeEspecial(): double</text>
<text x="42" y="618" fill="#0C447C" font-size="11">+ getTotalSacado(): double</text>

<!-- ── ContaPoupanca ── -->
<rect x="338" y="490" width="222" height="148" rx="5" fill="#E6F1FB" stroke="#185FA5" stroke-width="1"/>
<rect x="338" y="490" width="222" height="24" rx="5" fill="#378ADD"/>
<text x="449" y="506" text-anchor="middle" fill="white" font-size="13" font-weight="bold">ContaPoupanca</text>
<line x1="338" y1="516" x2="560" y2="516" stroke="#185FA5" stroke-width="0.5"/>
<text x="350" y="531" fill="#0C447C" font-size="11">- ultimoSaque: LocalDate</text>
<line x1="338" y1="543" x2="560" y2="543" stroke="#185FA5" stroke-width="0.5"/>
<text x="350" y="558" fill="#0C447C" font-size="11">+ calcularRendimento(): double</text>
<text x="350" y="573" fill="#0C447C" font-size="11">+ sacar(valor: double)</text>
<text x="350" y="588" fill="#0C447C" font-size="11">+ calcularImposto(): double</text>
<text x="350" y="603" fill="#0C447C" font-size="11">+ getUltimoSaque(): LocalDate</text>

<!-- ── ContaSalario ── -->
<rect x="646" y="490" width="224" height="132" rx="5" fill="#E6F1FB" stroke="#185FA5" stroke-width="1"/>
<rect x="646" y="490" width="224" height="24" rx="5" fill="#378ADD"/>
<text x="758" y="506" text-anchor="middle" fill="white" font-size="13" font-weight="bold">ContaSalario</text>
<line x1="646" y1="516" x2="870" y2="516" stroke="#185FA5" stroke-width="0.5"/>
<text x="658" y="531" fill="#0C447C" font-size="11">- ultimoSaque: LocalDate</text>
<line x1="646" y1="543" x2="870" y2="543" stroke="#185FA5" stroke-width="0.5"/>
<text x="658" y="558" fill="#0C447C" font-size="11">+ calcularRendimento(): double</text>
<text x="658" y="573" fill="#0C447C" font-size="11">+ sacar(valor: double)</text>
<text x="658" y="588" fill="#0C447C" font-size="11">+ isAtiva(): boolean</text>

<!-- ── SaldoInsuficienteException ── -->
<rect x="30" y="700" width="256" height="96" rx="5" fill="#FAECE7" stroke="#993C1D" stroke-width="1"/>
<rect x="30" y="700" width="256" height="24" rx="5" fill="#D85A30"/>
<text x="158" y="715" text-anchor="middle" fill="white" font-size="11" font-style="italic">&lt;&lt;unchecked&gt;&gt;</text>
<text x="158" y="734" text-anchor="middle" fill="#4A1B0C" font-size="12" font-weight="bold">SaldoInsuficienteException</text>
<line x1="30" y1="744" x2="286" y2="744" stroke="#993C1D" stroke-width="0.5"/>
<text x="42" y="759" fill="#712B13" font-size="11">- saldoAtual: double</text>
<text x="42" y="774" fill="#712B13" font-size="11">- valorSolicitado: double</text>
<text x="42" y="789" fill="#993C1D" font-size="10" font-style="italic">extends RuntimeException</text>

<!-- ── OperacaoInvalidaException ── -->
<rect x="600" y="700" width="260" height="96" rx="5" fill="#FAECE7" stroke="#993C1D" stroke-width="1"/>
<rect x="600" y="700" width="260" height="24" rx="5" fill="#D85A30"/>
<text x="730" y="715" text-anchor="middle" fill="white" font-size="11" font-style="italic">&lt;&lt;checked&gt;&gt;</text>
<text x="730" y="734" text-anchor="middle" fill="#4A1B0C" font-size="12" font-weight="bold">OperacaoInvalidaException</text>
<line x1="600" y1="744" x2="860" y2="744" stroke="#993C1D" stroke-width="0.5"/>
<text x="612" y="759" fill="#712B13" font-size="11">- numeroConta: String</text>
<text x="612" y="789" fill="#993C1D" font-size="10" font-style="italic">extends Exception (checked — recuperável)</text>

<!-- ── RELAÇÕES ── -->
<!-- Bloqueavel <-- ContaBancaria (implements, dashed) -->
<path d="M225 76 L450 76 L450 176" fill="none" stroke="#555" stroke-width="1" stroke-dasharray="5 3" marker-end="url(#trid)"/>

<!-- Tributavel <-- ContaBancaria (implements, dashed) -->
<path d="M660 78 L450 78 L450 176" fill="none" stroke="#555" stroke-width="1" stroke-dasharray="5 3" marker-end="url(#trid)"/>

<!-- ContaBancaria <-- ContaCorrente (herança) -->
<path d="M141 490 L141 452 L450 452 L450 376" fill="none" stroke="#555" stroke-width="1.2" marker-end="url(#tri)"/>

<!-- ContaBancaria <-- ContaPoupanca (herança) -->
<path d="M449 490 L449 452 L450 452 L450 376" fill="none" stroke="#555" stroke-width="1.2" marker-end="url(#tri)"/>

<!-- ContaBancaria <-- ContaSalario (herança) -->
<path d="M758 490 L758 452 L450 452 L450 376" fill="none" stroke="#555" stroke-width="1.2" marker-end="url(#tri)"/>

<!-- Tributavel <-- ContaCorrente (implements, dashed) -->
<path d="M252 530 L765 530 L765 108" fill="none" stroke="#555" stroke-width="0.8" stroke-dasharray="5 3" marker-end="url(#trid)"/>

<!-- Tributavel <-- ContaPoupanca (implements, dashed) -->
<path d="M560 560 L810 560 L810 108" fill="none" stroke="#555" stroke-width="0.8" stroke-dasharray="5 3" marker-end="url(#trid)"/>

<!-- SaldoInsuficiente <<throws>> ContaBancaria -->
<path d="M158 700 L158 660 L450 660 L450 376" fill="none" stroke="#D85A30" stroke-width="0.8" stroke-dasharray="3 3" opacity="0.7" marker-end="url(#arr)"/>
<rect x="256" y="650" width="70" height="16" rx="3" fill="#FAFAFA"/>
<text x="290" y="661" text-anchor="middle" fill="#D85A30" font-size="10" font-style="italic">«throws»</text>

<!-- OperacaoInvalida <<throws>> ContaBancaria -->
<path d="M730 700 L730 660 L450 660" fill="none" stroke="#D85A30" stroke-width="0.8" stroke-dasharray="3 3" opacity="0.7" marker-end="url(#arr)"/>

<!-- ── LEGENDA ── -->
<rect x="330" y="422" width="238" height="42" rx="4" fill="white" stroke="#ccc" stroke-width="0.5"/>
<line x1="342" y1="436" x2="366" y2="436" stroke="#555" stroke-width="1.2" marker-end="url(#tri)"/>
<text x="372" y="440" fill="#555" font-size="10">herança (extends)</text>
<line x1="342" y1="454" x2="366" y2="454" stroke="#555" stroke-width="1" stroke-dasharray="5 3" marker-end="url(#trid)"/>
<text x="372" y="458" fill="#555" font-size="10">implementa (implements)</text>

</svg>
